<?xml version="1.0" encoding="UTF-8" standalone="no"?>
<svg
   xmlns:dc="http://purl.org/dc/elements/1.1/"
   xmlns:cc="http://creativecommons.org/ns#"
   xmlns:rdf="http://www.w3.org/1999/02/22-rdf-syntax-ns#"
   xmlns:svg="http://www.w3.org/2000/svg"
   xmlns="http://www.w3.org/2000/svg"
   xmlns:sodipodi="http://sodipodi.sourceforge.net/DTD/sodipodi-0.dtd"
   xmlns:inkscape="http://www.inkscape.org/namespaces/inkscape"
   id="sprotty_G1"
   class="sprotty-graph"
   style="font-size:14px;line-height:20px;color:#333333"
   version="1.1"
   viewBox="0 0 981.97878 504.16666"
   inkscape:version="0.48.4 r9939"
   width="100%"
   height="100%"
   sodipodi:docname="diagram (1).svg">
  <metadata
     id="metadata395">
    <rdf:RDF>
      <cc:Work
         rdf:about="">
        <dc:format>image/svg+xml</dc:format>
        <dc:type
           rdf:resource="http://purl.org/dc/dcmitype/StillImage" />
      </cc:Work>
    </rdf:RDF>
  </metadata>
  <defs
     id="defs393" />
  <sodipodi:namedview
     pagecolor="#ffffff"
     bordercolor="#666666"
     borderopacity="1"
     objecttolerance="10"
     gridtolerance="10"
     guidetolerance="10"
     inkscape:pageopacity="0"
     inkscape:pageshadow="2"
     inkscape:window-width="1832"
     inkscape:window-height="1057"
     id="namedview391"
     showgrid="false"
     fit-margin-top="0"
     fit-margin-left="0"
     fit-margin-right="0"
     fit-margin-bottom="0"
     inkscape:zoom="0.9573138"
     inkscape:cx="443.49999"
     inkscape:cy="360.98835"
     inkscape:window-x="80"
     inkscape:window-y="-8"
     inkscape:window-maximized="1"
     inkscape:current-layer="sprotty_G1" />
  <rect
     x="485.5"
     y="99.666672"
     width="324"
     height="96"
     class="elknode"
     style="fill:#ddddff;stroke:#444488;stroke-width:1"
     id="rect6" />
  <rect
     id="rect10"
     style="fill:#6666cc;stroke:#444488;stroke-width:1"
     class="elkport"
     height="8"
     width="8"
     y="151"
     x="477.5" />
  <rect
     id="rect13"
     style="fill:#ddddff;stroke:#444488;stroke-width:1"
     class="elknode"
     height="41"
     width="61"
     y="142.66667"
     x="525.5" />
  <rect
     x="517.5"
     y="151"
     width="8"
     height="8"
     class="elkport"
     style="fill:#6666cc;stroke:#444488;stroke-width:1"
     id="rect17" />
  <rect
     x="517.5"
     y="167.33334"
     width="8"
     height="8"
     class="elkport"
     style="fill:#6666cc;stroke:#444488;stroke-width:1"
     id="rect20" />
  <rect
     x="586.5"
     y="159.16667"
     width="8"
     height="8"
     class="elkport"
     style="fill:#6666cc;stroke:#444488;stroke-width:1"
     id="rect23" />
  <rect
     id="rect26"
     style="fill:#ddddff;stroke:#444488;stroke-width:1"
     class="elknode"
     height="41"
     width="10"
     y="134.5"
     x="622.5" />
  <rect
     x="632.5"
     y="151"
     width="8"
     height="8"
     class="elkport"
     style="fill:#6666cc;stroke:#444488;stroke-width:1"
     id="rect30" />
  <rect
     x="614.5"
     y="142.83333"
     width="8"
     height="8"
     class="elkport"
     style="fill:#6666cc;stroke:#444488;stroke-width:1"
     id="rect33" />
  <rect
     x="614.5"
     y="159.16667"
     width="8"
     height="8"
     class="elkport"
     style="fill:#6666cc;stroke:#444488;stroke-width:1"
     id="rect36" />
  <rect
     id="rect39"
     style="fill:#ddddff;stroke:#444488;stroke-width:1"
     class="elknode"
     height="31"
     width="41"
     y="139.5"
     x="754.5" />
  <rect
     x="746.5"
     y="151"
     width="8"
     height="8"
     class="elkport"
     style="fill:#6666cc;stroke:#444488;stroke-width:1"
     id="rect43" />
  <path
     inkscape:connector-curvature="0"
     id="path46"
     style="fill:none;stroke:#222244;stroke-width:1"
     class="elkedge"
     d="m 485.49999,155 32,0" />
  <path
     inkscape:connector-curvature="0"
     id="path48"
     class="edge arrow"
     d="m 517.49999,155 -8,3 0,-6 z" />
  <path
     inkscape:connector-curvature="0"
     id="path51"
     style="fill:none;stroke:#222244;stroke-width:1"
     class="elkedge"
     d="m 485.49999,155 22,0 0,-43.33333 97,0 0,35.16667 10,0" />
  <path
     inkscape:connector-curvature="0"
     id="path53"
     class="edge arrow"
     d="m 614.49999,146.83334 -8,3 0,-6 z" />
  <circle
     r="2"
     class="elkjunction"
     style="fill:#222244"
     id="circle56"
     d="M 2,0 C 2,1.1045695 1.1045695,2 0,2 -1.1045695,2 -2,1.1045695 -2,0 c 0,-1.1045695 0.8954305,-2 2,-2 1.1045695,0 2,0.8954305 2,2 z"
     cx="0"
     cy="0"
     sodipodi:cx="0"
     sodipodi:cy="0"
     sodipodi:rx="2"
     sodipodi:ry="2"
     transform="translate(507.49999,155)" />
  <path
     inkscape:connector-curvature="0"
     id="path59"
     style="fill:none;stroke:#222244;stroke-width:1"
     class="elkedge"
     d="m 594.49999,163.16667 20,0" />
  <path
     inkscape:connector-curvature="0"
     id="path61"
     class="edge arrow"
     d="m 614.49999,163.16667 -8,3 0,-6 z" />
  <path
     inkscape:connector-curvature="0"
     id="path64"
     style="fill:none;stroke:#222244;stroke-width:1"
     class="elkedge"
     d="m 640.49999,155 106,0" />
  <path
     inkscape:connector-curvature="0"
     id="path66"
     class="edge arrow"
     d="m 746.49999,155 -8,3 0,-6 z" />
  <rect
     x="549.25"
     y="235.66667"
     width="61"
     height="41"
     class="elknode"
     style="fill:#ddddff;stroke:#444488;stroke-width:1"
     id="rect69" />
  <rect
     id="rect73"
     style="fill:#6666cc;stroke:#444488;stroke-width:1"
     class="elkport"
     height="8"
     width="8"
     y="244"
     x="541.25" />
  <rect
     id="rect76"
     style="fill:#6666cc;stroke:#444488;stroke-width:1"
     class="elkport"
     height="8"
     width="8"
     y="260.33334"
     x="541.25" />
  <rect
     id="rect79"
     style="fill:#6666cc;stroke:#444488;stroke-width:1"
     class="elkport"
     height="8"
     width="8"
     y="252.16666"
     x="610.25" />
  <rect
     x="485.5"
     y="397.66666"
     width="324"
     height="96"
     class="elknode"
     style="fill:#ddddff;stroke:#444488;stroke-width:1"
     id="rect82" />
  <rect
     id="rect86"
     style="fill:#6666cc;stroke:#444488;stroke-width:1"
     class="elkport"
     height="8"
     width="8"
     y="449"
     x="477.5" />
  <rect
     id="rect89"
     style="fill:#ddddff;stroke:#444488;stroke-width:1"
     class="elknode"
     height="41"
     width="61"
     y="440.66666"
     x="525.5" />
  <rect
     x="517.5"
     y="449"
     width="8"
     height="8"
     class="elkport"
     style="fill:#6666cc;stroke:#444488;stroke-width:1"
     id="rect93" />
  <rect
     x="517.5"
     y="465.33334"
     width="8"
     height="8"
     class="elkport"
     style="fill:#6666cc;stroke:#444488;stroke-width:1"
     id="rect96" />
  <rect
     x="586.5"
     y="457.16666"
     width="8"
     height="8"
     class="elkport"
     style="fill:#6666cc;stroke:#444488;stroke-width:1"
     id="rect99" />
  <rect
     id="rect102"
     style="fill:#ddddff;stroke:#444488;stroke-width:1"
     class="elknode"
     height="41"
     width="10"
     y="432.5"
     x="622.5" />
  <rect
     x="632.5"
     y="449"
     width="8"
     height="8"
     class="elkport"
     style="fill:#6666cc;stroke:#444488;stroke-width:1"
     id="rect106" />
  <rect
     x="614.5"
     y="440.83334"
     width="8"
     height="8"
     class="elkport"
     style="fill:#6666cc;stroke:#444488;stroke-width:1"
     id="rect109" />
  <rect
     x="614.5"
     y="457.16666"
     width="8"
     height="8"
     class="elkport"
     style="fill:#6666cc;stroke:#444488;stroke-width:1"
     id="rect112" />
  <rect
     id="rect115"
     style="fill:#ddddff;stroke:#444488;stroke-width:1"
     class="elknode"
     height="31"
     width="41"
     y="437.5"
     x="754.5" />
  <rect
     x="746.5"
     y="449"
     width="8"
     height="8"
     class="elkport"
     style="fill:#6666cc;stroke:#444488;stroke-width:1"
     id="rect119" />
  <path
     inkscape:connector-curvature="0"
     id="path122"
     style="fill:none;stroke:#222244;stroke-width:1"
     class="elkedge"
     d="m 485.49999,453 32,0" />
  <path
     inkscape:connector-curvature="0"
     id="path124"
     class="edge arrow"
     d="m 517.49999,453 -8,3 0,-6 z" />
  <path
     inkscape:connector-curvature="0"
     id="path127"
     style="fill:none;stroke:#222244;stroke-width:1"
     class="elkedge"
     d="m 485.49999,453 22,0 0,-43.33333 97,0 0,35.16667 10,0" />
  <path
     inkscape:connector-curvature="0"
     id="path129"
     class="edge arrow"
     d="m 614.49999,444.83334 -8,3 0,-6 z" />
  <circle
     r="2"
     class="elkjunction"
     style="fill:#222244"
     id="circle132"
     d="M 2,0 C 2,1.1045695 1.1045695,2 0,2 -1.1045695,2 -2,1.1045695 -2,0 c 0,-1.1045695 0.8954305,-2 2,-2 1.1045695,0 2,0.8954305 2,2 z"
     cx="0"
     cy="0"
     sodipodi:cx="0"
     sodipodi:cy="0"
     sodipodi:rx="2"
     sodipodi:ry="2"
     transform="translate(507.49999,453)" />
  <path
     inkscape:connector-curvature="0"
     id="path135"
     style="fill:none;stroke:#222244;stroke-width:1"
     class="elkedge"
     d="m 594.49999,461.16667 20,0" />
  <path
     inkscape:connector-curvature="0"
     id="path137"
     class="edge arrow"
     d="m 614.49999,461.16667 -8,3 0,-6 z" />
  <path
     inkscape:connector-curvature="0"
     id="path140"
     style="fill:none;stroke:#222244;stroke-width:1"
     class="elkedge"
     d="m 640.49999,453 106,0" />
  <path
     inkscape:connector-curvature="0"
     id="path142"
     class="edge arrow"
     d="m 746.49999,453 -8,3 0,-6 z" />
  <rect
     x="549.25"
     y="316.66666"
     width="61"
     height="41"
     class="elknode"
     style="fill:#ddddff;stroke:#444488;stroke-width:1"
     id="rect145" />
  <rect
     id="rect149"
     style="fill:#6666cc;stroke:#444488;stroke-width:1"
     class="elkport"
     height="8"
     width="8"
     y="325"
     x="541.25" />
  <rect
     id="rect152"
     style="fill:#6666cc;stroke:#444488;stroke-width:1"
     class="elkport"
     height="8"
     width="8"
     y="341.33334"
     x="541.25" />
  <rect
     id="rect155"
     style="fill:#6666cc;stroke:#444488;stroke-width:1"
     class="elkport"
     height="8"
     width="8"
     y="333.16666"
     x="610.25" />
  <rect
     x="134.49998"
     y="232.39999"
     width="61"
     height="41"
     class="elknode"
     style="fill:#ddddff;stroke:#444488;stroke-width:1"
     id="rect158" />
  <rect
     id="rect162"
     style="fill:#6666cc;stroke:#444488;stroke-width:1"
     class="elkport"
     height="8"
     width="8"
     y="248.89999"
     x="195.49998" />
  <rect
     id="rect165"
     style="fill:#6666cc;stroke:#444488;stroke-width:1"
     class="elkport"
     height="8"
     width="8"
     y="240.73334"
     x="126.49999" />
  <rect
     id="rect168"
     style="fill:#6666cc;stroke:#444488;stroke-width:1"
     class="elkport"
     height="8"
     width="8"
     y="257.06668"
     x="126.49999" />
  <rect
     x="837.5"
     y="235.66667"
     width="61"
     height="41"
     class="elknode"
     style="fill:#ddddff;stroke:#444488;stroke-width:1"
     id="rect171" />
  <rect
     id="rect175"
     style="fill:#6666cc;stroke:#444488;stroke-width:1"
     class="elkport"
     height="8"
     width="8"
     y="252.16666"
     x="829.5" />
  <rect
     x="837.5"
     y="316.66666"
     width="61"
     height="41"
     class="elknode"
     style="fill:#ddddff;stroke:#444488;stroke-width:1"
     id="rect178" />
  <rect
     id="rect182"
     style="fill:#6666cc;stroke:#444488;stroke-width:1"
     class="elkport"
     height="8"
     width="8"
     y="333.16666"
     x="829.5" />
  <rect
     x="8.4999905"
     y="211.98334"
     width="61"
     height="41"
     class="elknode"
     style="fill:#ddddff;stroke:#444488;stroke-width:1"
     id="rect185" />
  <rect
     id="rect189"
     style="fill:#6666cc;stroke:#444488;stroke-width:1"
     class="elkport"
     height="8"
     width="8"
     y="216.23334"
     x="69.499992" />
  <rect
     id="rect192"
     style="fill:#6666cc;stroke:#444488;stroke-width:1"
     class="elkport"
     height="8"
     width="8"
     y="228.48334"
     x="69.499992" />
  <rect
     id="rect195"
     style="fill:#6666cc;stroke:#444488;stroke-width:1"
     class="elkport"
     height="8"
     width="8"
     y="240.73334"
     x="69.499992" />
  <rect
     id="rect198"
     style="fill:#6666cc;stroke:#444488;stroke-width:1"
     class="elkport"
     height="8"
     width="8"
     y="228.48334"
     x="0.49999085" />
  <rect
     x="348.5"
     y="31.5"
     width="41"
     height="31"
     class="elknode"
     style="fill:#ddddff;stroke:#444488;stroke-width:1"
     id="rect201" />
  <rect
     id="rect205"
     style="fill:#6666cc;stroke:#444488;stroke-width:1"
     class="elkport"
     height="8"
     width="8"
     y="43"
     x="340.5" />
  <rect
     x="231.49998"
     y="227.5"
     width="61"
     height="41"
     class="elknode"
     style="fill:#ddddff;stroke:#444488;stroke-width:1"
     id="rect208" />
  <rect
     id="rect212"
     style="fill:#6666cc;stroke:#444488;stroke-width:1"
     class="elkport"
     height="8"
     width="8"
     y="229.3"
     x="223.49998" />
  <rect
     id="rect215"
     style="fill:#6666cc;stroke:#444488;stroke-width:1"
     class="elkport"
     height="8"
     width="8"
     y="231.75"
     x="292.5" />
  <rect
     id="rect218"
     style="fill:#6666cc;stroke:#444488;stroke-width:1"
     class="elkport"
     height="8"
     width="8"
     y="239.10001"
     x="223.49998" />
  <rect
     id="rect221"
     style="fill:#6666cc;stroke:#444488;stroke-width:1"
     class="elkport"
     height="8"
     width="8"
     y="248.89999"
     x="223.49998" />
  <rect
     id="rect224"
     style="fill:#6666cc;stroke:#444488;stroke-width:1"
     class="elkport"
     height="8"
     width="8"
     y="258.70001"
     x="223.49998" />
  <rect
     id="rect227"
     style="fill:#6666cc;stroke:#444488;stroke-width:1"
     class="elkport"
     height="8"
     width="8"
     y="244"
     x="292.5" />
  <rect
     id="rect230"
     style="fill:#6666cc;stroke:#444488;stroke-width:1"
     class="elkport"
     height="8"
     width="8"
     y="256.25"
     x="292.5" />
  <rect
     x="348.5"
     y="102.5"
     width="101"
     height="93"
     class="elknode"
     style="fill:#ddddff;stroke:#444488;stroke-width:1"
     id="rect233" />
  <rect
     id="rect237"
     style="fill:#6666cc;stroke:#444488;stroke-width:1"
     class="elkport"
     height="8"
     width="8"
     y="151"
     x="340.5" />
  <rect
     id="rect240"
     style="fill:#6666cc;stroke:#444488;stroke-width:1"
     class="elkport"
     height="8"
     width="8"
     y="151"
     x="449.5" />
  <rect
     id="rect243"
     style="fill:#ddddff;stroke:#444488;stroke-width:1"
     class="elknode"
     height="41"
     width="61"
     y="134.5"
     x="368.5" />
  <rect
     x="360.5"
     y="151"
     width="8"
     height="8"
     class="elkport"
     style="fill:#6666cc;stroke:#444488;stroke-width:1"
     id="rect247" />
  <rect
     x="429.5"
     y="151"
     width="8"
     height="8"
     class="elkport"
     style="fill:#6666cc;stroke:#444488;stroke-width:1"
     id="rect250" />
  <rect
     x="395"
     y="175.5"
     width="8"
     height="8"
     class="elkport"
     style="fill:#6666cc;stroke:#444488;stroke-width:1"
     id="rect253" />
  <path
     inkscape:connector-curvature="0"
     id="path256"
     style="fill:none;stroke:#222244;stroke-width:1"
     class="elkedge"
     d="m 348.49999,155 12,0" />
  <path
     inkscape:connector-curvature="0"
     id="path258"
     class="edge arrow"
     d="m 360.49999,155 -8,3 0,-6 z" />
  <path
     inkscape:connector-curvature="0"
     id="path261"
     style="fill:none;stroke:#222244;stroke-width:1"
     class="elkedge"
     d="m 437.49999,155 12,0" />
  <path
     inkscape:connector-curvature="0"
     id="path263"
     class="edge arrow"
     d="m 449.49999,155 -8,3 0,-6 z" />
  <rect
     x="348.5"
     y="400.5"
     width="101"
     height="93"
     class="elknode"
     style="fill:#ddddff;stroke:#444488;stroke-width:1"
     id="rect266" />
  <rect
     id="rect270"
     style="fill:#6666cc;stroke:#444488;stroke-width:1"
     class="elkport"
     height="8"
     width="8"
     y="449"
     x="340.5" />
  <rect
     id="rect273"
     style="fill:#6666cc;stroke:#444488;stroke-width:1"
     class="elkport"
     height="8"
     width="8"
     y="449"
     x="449.5" />
  <rect
     id="rect276"
     style="fill:#ddddff;stroke:#444488;stroke-width:1"
     class="elknode"
     height="41"
     width="61"
     y="432.5"
     x="368.5" />
  <g
     id="g3996"
     transform="translate(-11.500009,-11.5)">
    <text
       y="103.16667"
       x="497"
       style="font-size:13.33329964px;line-height:19.04759979px;stroke:#000000;stroke-width:0px;font-family:sans-serif"
       class="elklabel"
       id="sprotty_G1.N1.L1">channel1</text>
    <text
       y="146.16667"
       x="537"
       id="sprotty_G1.N1.N2.L2"
       class="elklabel"
       style="font-size:13.33329964px;line-height:19.04759979px;stroke:#000000;stroke-width:0px;font-family:sans-serif">Counter</text>
    <text
       y="138"
       x="634"
       id="sprotty_G1.N1.N3.L3"
       class="elklabel"
       style="font-size:13.33329964px;line-height:19.04759979px;stroke:#000000;stroke-width:0px;font-family:sans-serif">RecordAssembler</text>
    <text
       y="143"
       x="766"
       id="sprotty_G1.N1.N4.L4"
       class="elklabel"
       style="font-size:13.33329964px;line-height:19.04759979px;stroke:#000000;stroke-width:0px;font-family:sans-serif">Display</text>
    <text
       y="239.16667"
       x="560.75"
       style="font-size:13.33329964px;line-height:19.04759979px;stroke:#000000;stroke-width:0px;font-family:sans-serif"
       class="elklabel"
       id="sprotty_G1.N5.L5">Counter - q1</text>
    <text
       y="401.16666"
       x="497"
       style="font-size:13.33329964px;line-height:19.04759979px;stroke:#000000;stroke-width:0px;font-family:sans-serif"
       class="elklabel"
       id="sprotty_G1.N6.L6">channel2</text>
    <text
       y="444.16666"
       x="537"
       id="sprotty_G1.N6.N7.L7"
       class="elklabel"
       style="font-size:13.33329964px;line-height:19.04759979px;stroke:#000000;stroke-width:0px;font-family:sans-serif">Counter</text>
    <text
       y="436"
       x="634"
       id="sprotty_G1.N6.N8.L8"
       class="elklabel"
       style="font-size:13.33329964px;line-height:19.04759979px;stroke:#000000;stroke-width:0px;font-family:sans-serif">RecordAssembler</text>
    <text
       y="441"
       x="766"
       id="sprotty_G1.N6.N9.L9"
       class="elklabel"
       style="font-size:13.33329964px;line-height:19.04759979px;stroke:#000000;stroke-width:0px;font-family:sans-serif">Display</text>
    <text
       y="320.16666"
       x="560.75"
       style="font-size:13.33329964px;line-height:19.04759979px;stroke:#000000;stroke-width:0px;font-family:sans-serif"
       class="elklabel"
       id="sprotty_G1.N10.L10">Counter - q2</text>
    <text
       y="235.89999"
       x="146"
       style="font-size:13.33329964px;line-height:19.04759979px;stroke:#000000;stroke-width:0px;font-family:sans-serif"
       class="elklabel"
       id="sprotty_G1.N11.L11">Ramp</text>
    <text
       y="239.16667"
       x="849"
       style="font-size:13.33329964px;line-height:19.04759979px;stroke:#000000;stroke-width:0px;font-family:sans-serif"
       class="elklabel"
       id="sprotty_G1.N12.L12">MonitorValue - q1 length</text>
    <text
       y="320.16666"
       x="849"
       style="font-size:13.33329964px;line-height:19.04759979px;stroke:#000000;stroke-width:0px;font-family:sans-serif"
       class="elklabel"
       id="sprotty_G1.N13.L13">MonitorValue - q2 length</text>
    <text
       y="215.48334"
       x="20"
       style="font-size:13.33329964px;line-height:19.04759979px;stroke:#000000;stroke-width:0px;font-family:sans-serif"
       class="elklabel"
       id="sprotty_G1.N14.L14">DatagramReader</text>
    <text
       y="35"
       x="360"
       style="font-size:13.33329964px;line-height:19.04759979px;stroke:#000000;stroke-width:0px;font-family:sans-serif"
       class="elklabel"
       id="sprotty_G1.N15.L15">Display</text>
    <text
       y="231"
       x="243"
       style="font-size:13.33329964px;line-height:19.04759979px;stroke:#000000;stroke-width:0px;font-family:sans-serif"
       class="elklabel"
       id="sprotty_G1.N16.L16">QueueControl</text>
    <text
       y="106"
       x="360"
       style="font-size:13.33329964px;line-height:19.04759979px;stroke:#000000;stroke-width:0px;font-family:sans-serif"
       class="elklabel"
       id="sprotty_G1.N17.L17">Interface - fast</text>
    <text
       y="138"
       x="380"
       id="sprotty_G1.N17.N18.L18"
       class="elklabel"
       style="font-size:13.33329964px;line-height:19.04759979px;stroke:#000000;stroke-width:0px;font-family:sans-serif">Sleep</text>
    <text
       y="404"
       x="360"
       style="font-size:13.33329964px;line-height:19.04759979px;stroke:#000000;stroke-width:0px;font-family:sans-serif"
       class="elklabel"
       id="sprotty_G1.N19.L19">Interface - slow</text>
    <text
       y="436"
       x="380"
       id="sprotty_G1.N19.N20.L20"
       class="elklabel"
       style="font-size:13.33329964px;line-height:19.04759979px;stroke:#000000;stroke-width:0px;font-family:sans-serif">Sleep</text>
  </g>
  <rect
     x="360.5"
     y="449"
     width="8"
     height="8"
     class="elkport"
     style="fill:#6666cc;stroke:#444488;stroke-width:1"
     id="rect280" />
  <rect
     x="429.5"
     y="449"
     width="8"
     height="8"
     class="elkport"
     style="fill:#6666cc;stroke:#444488;stroke-width:1"
     id="rect283" />
  <rect
     x="395"
     y="473.5"
     width="8"
     height="8"
     class="elkport"
     style="fill:#6666cc;stroke:#444488;stroke-width:1"
     id="rect286" />
  <path
     inkscape:connector-curvature="0"
     id="path289"
     style="fill:none;stroke:#222244;stroke-width:1"
     class="elkedge"
     d="m 348.49999,453 12,0" />
  <path
     inkscape:connector-curvature="0"
     id="path291"
     class="edge arrow"
     d="m 360.49999,453 -8,3 0,-6 z" />
  <path
     inkscape:connector-curvature="0"
     id="path294"
     style="fill:none;stroke:#222244;stroke-width:1"
     class="elkedge"
     d="m 437.49999,453 12,0" />
  <path
     inkscape:connector-curvature="0"
     id="path296"
     class="edge arrow"
     d="m 449.49999,453 -8,3 0,-6 z" />
  <path
     d="m 618.24999,256.16667 211.25,0"
     class="elkedge"
     style="fill:none;stroke:#222244;stroke-width:1"
     id="path299"
     inkscape:connector-curvature="0" />
  <path
     d="m 829.49999,256.16667 -8,3 0,-6 z"
     class="edge arrow"
     id="path301"
     inkscape:connector-curvature="0" />
  <path
     d="m 618.24999,256.16667 201.25,0 0,-255.66667 -606,0 0,242.6 10,0"
     class="elkedge"
     style="fill:none;stroke:#222244;stroke-width:1"
     id="path304"
     inkscape:connector-curvature="0" />
  <path
     d="m 223.49999,243.1 -8,3 0,-6 z"
     class="edge arrow"
     id="path306"
     inkscape:connector-curvature="0" />
  <circle
     sodipodi:ry="2"
     sodipodi:rx="2"
     sodipodi:cy="0"
     sodipodi:cx="0"
     cy="0"
     cx="0"
     d="M 2,0 C 2,1.1045695 1.1045695,2 0,2 -1.1045695,2 -2,1.1045695 -2,0 c 0,-1.1045695 0.8954305,-2 2,-2 1.1045695,0 2,0.8954305 2,2 z"
     id="circle309"
     style="fill:#222244"
     class="elkjunction"
     r="2"
     transform="translate(819.49999,256.16667)" />
  <path
     d="m 618.24999,337.16667 211.25,0"
     class="elkedge"
     style="fill:none;stroke:#222244;stroke-width:1"
     id="path312"
     inkscape:connector-curvature="0" />
  <path
     d="m 829.49999,337.16667 -8,3 0,-6 z"
     class="edge arrow"
     id="path314"
     inkscape:connector-curvature="0" />
  <path
     d="m 618.24999,337.16667 201.25,0 0,166.5 -606,0 0,-240.96667 10,0"
     class="elkedge"
     style="fill:none;stroke:#222244;stroke-width:1"
     id="path317"
     inkscape:connector-curvature="0" />
  <path
     d="m 223.49999,262.7 -8,3 0,-6 z"
     class="edge arrow"
     id="path319"
     inkscape:connector-curvature="0" />
  <circle
     sodipodi:ry="2"
     sodipodi:rx="2"
     sodipodi:cy="0"
     sodipodi:cx="0"
     cy="0"
     cx="0"
     d="M 2,0 C 2,1.1045695 1.1045695,2 0,2 -1.1045695,2 -2,1.1045695 -2,0 c 0,-1.1045695 0.8954305,-2 2,-2 1.1045695,0 2,0.8954305 2,2 z"
     id="circle322"
     style="fill:#222244"
     class="elkjunction"
     r="2"
     transform="translate(819.49999,337.16667)" />
  <path
     d="m 203.49999,252.9 20,0"
     class="elkedge"
     style="fill:none;stroke:#222244;stroke-width:1"
     id="path325"
     inkscape:connector-curvature="0" />
  <path
     d="m 223.49999,252.9 -8,3 0,-6 z"
     class="edge arrow"
     id="path327"
     inkscape:connector-curvature="0" />
  <path
     d="m 77.499991,244.73333 48.999999,0"
     class="elkedge"
     style="fill:none;stroke:#222244;stroke-width:1"
     id="path330"
     inkscape:connector-curvature="0" />
  <path
     d="m 126.49999,244.73333 -8,3 0,-6 z"
     class="edge arrow"
     id="path332"
     inkscape:connector-curvature="0" />
  <path
     d="m 300.49999,248 240.75,0"
     class="elkedge"
     style="fill:none;stroke:#222244;stroke-width:1"
     id="path335"
     inkscape:connector-curvature="0" />
  <path
     d="m 541.24999,248 -8,3 0,-6 z"
     class="edge arrow"
     id="path337"
     inkscape:connector-curvature="0" />
  <path
     d="m 300.49999,248 30,0 0,-93 10,0"
     class="elkedge"
     style="fill:none;stroke:#222244;stroke-width:1"
     id="path340"
     inkscape:connector-curvature="0" />
  <path
     d="m 340.49999,155 -8,3 0,-6 z"
     class="edge arrow"
     id="path342"
     inkscape:connector-curvature="0" />
  <circle
     sodipodi:ry="2"
     sodipodi:rx="2"
     sodipodi:cy="0"
     sodipodi:cx="0"
     cy="0"
     cx="0"
     d="M 2,0 C 2,1.1045695 1.1045695,2 0,2 -1.1045695,2 -2,1.1045695 -2,0 c 0,-1.1045695 0.8954305,-2 2,-2 1.1045695,0 2,0.8954305 2,2 z"
     id="circle345"
     style="fill:#222244"
     class="elkjunction"
     r="2"
     transform="translate(330.49999,248)" />
  <path
     d="m 300.49999,260.25 20,0 0,68.75 220.75,0"
     class="elkedge"
     style="fill:none;stroke:#222244;stroke-width:1"
     id="path348"
     inkscape:connector-curvature="0" />
  <path
     d="m 541.24999,329 -8,3 0,-6 z"
     class="edge arrow"
     id="path350"
     inkscape:connector-curvature="0" />
  <circle
     sodipodi:ry="2"
     sodipodi:rx="2"
     sodipodi:cy="0"
     sodipodi:cx="0"
     cy="0"
     cx="0"
     d="M 2,0 C 2,1.1045695 1.1045695,2 0,2 -1.1045695,2 -2,1.1045695 -2,0 c 0,-1.1045695 0.8954305,-2 2,-2 1.1045695,0 2,0.8954305 2,2 z"
     id="circle353"
     style="fill:#222244"
     class="elkjunction"
     r="2"
     transform="translate(320.49999,329)" />
  <path
     d="m 300.49999,260.25 20,0 0,192.75 20,0"
     class="elkedge"
     style="fill:none;stroke:#222244;stroke-width:1"
     id="path356"
     inkscape:connector-curvature="0" />
  <path
     d="m 340.49999,453 -8,3 0,-6 z"
     class="edge arrow"
     id="path358"
     inkscape:connector-curvature="0" />
  <path
     d="m 300.49999,235.75 20,0 0,-188.75 20,0"
     class="elkedge"
     style="fill:none;stroke:#222244;stroke-width:1"
     id="path361"
     inkscape:connector-curvature="0" />
  <path
     d="m 340.49999,47 -8,3 0,-6 z"
     class="edge arrow"
     id="path363"
     inkscape:connector-curvature="0" />
  <path
     d="m 457.49999,155 20,0"
     class="elkedge"
     style="fill:none;stroke:#222244;stroke-width:1"
     id="path366"
     inkscape:connector-curvature="0" />
  <path
     d="m 477.49999,155 -8,3 0,-6 z"
     class="edge arrow"
     id="path368"
     inkscape:connector-curvature="0" />
  <path
     d="m 457.49999,155 10,0 0,109.33333 73.75,0"
     class="elkedge"
     style="fill:none;stroke:#222244;stroke-width:1"
     id="path371"
     inkscape:connector-curvature="0" />
  <path
     d="m 541.24999,264.33333 -8,3 0,-6 z"
     class="edge arrow"
     id="path373"
     inkscape:connector-curvature="0" />
  <circle
     sodipodi:ry="2"
     sodipodi:rx="2"
     sodipodi:cy="0"
     sodipodi:cx="0"
     cy="0"
     cx="0"
     d="M 2,0 C 2,1.1045695 1.1045695,2 0,2 -1.1045695,2 -2,1.1045695 -2,0 c 0,-1.1045695 0.8954305,-2 2,-2 1.1045695,0 2,0.8954305 2,2 z"
     id="circle376"
     style="fill:#222244"
     class="elkjunction"
     r="2"
     transform="translate(467.49999,155)" />
  <path
     d="m 457.49999,453 20,0"
     class="elkedge"
     style="fill:none;stroke:#222244;stroke-width:1"
     id="path379"
     inkscape:connector-curvature="0" />
  <path
     d="m 477.49999,453 -8,3 0,-6 z"
     class="edge arrow"
     id="path381"
     inkscape:connector-curvature="0" />
  <path
     d="m 457.49999,453 10,0 0,-107.66667 73.75,0"
     class="elkedge"
     style="fill:none;stroke:#222244;stroke-width:1"
     id="path384"
     inkscape:connector-curvature="0" />
  <path
     d="m 541.24999,345.33333 -8,3 0,-6 z"
     class="edge arrow"
     id="path386"
     inkscape:connector-curvature="0" />
  <circle
     sodipodi:ry="2"
     sodipodi:rx="2"
     sodipodi:cy="0"
     sodipodi:cx="0"
     cy="0"
     cx="0"
     d="M 2,0 C 2,1.1045695 1.1045695,2 0,2 -1.1045695,2 -2,1.1045695 -2,0 c 0,-1.1045695 0.8954305,-2 2,-2 1.1045695,0 2,0.8954305 2,2 z"
     id="circle389"
     style="fill:#222244"
     class="elkjunction"
     r="2"
     transform="translate(467.49999,453)" />
</svg>
